<svg xmlns="http://www.w3.org/2000/svg" style="isolation:isolate" width="16" height="16" viewBox="0 0 16 16">
 <defs>
  <style id="current-color-scheme" type="text/css">
   .ColorScheme-Text { color:{{ theme.colors.blue }}; } .ColorScheme-Highlight { color:{{ theme.colors.blue }}; }
  </style>
  <linearGradient id="arrongin" x1="0%" x2="0%" y1="0%" y2="100%">
   <stop offset="0%" style="stop-color:{{ theme.colors.orange }}; stop-opacity:1"/>
   <stop offset="100%" style="stop-color:{{ theme.colors.orange }}; stop-opacity:1"/>
  </linearGradient>
  <linearGradient id="aurora" x1="0%" x2="0%" y1="0%" y2="100%">
   <stop offset="0%" style="stop-color:{{ theme.colors.cyan }}; stop-opacity:1"/>
   <stop offset="100%" style="stop-color:{{ theme.colors.magenta }}; stop-opacity:1"/>
  </linearGradient>
  <linearGradient id="fitdance" x1="0%" x2="0%" y1="0%" y2="100%">
   <stop offset="0%" style="stop-color:{{ theme.colors.green }}; stop-opacity:1"/>
   <stop offset="100%" style="stop-color:{{ theme.colors.cyan }}; stop-opacity:1"/>
  </linearGradient>
  <linearGradient id="oomox" x1="0%" x2="0%" y1="0%" y2="100%">
   <stop offset="0%" style="stop-color:{{ theme.colors.gray }}; stop-opacity:1"/>
   <stop offset="100%" style="stop-color:{{ theme.colors.gray }}; stop-opacity:1"/>
  </linearGradient>
  <linearGradient id="rainblue" x1="0%" x2="0%" y1="0%" y2="100%">
   <stop offset="0%" style="stop-color:{{ theme.colors.green }}; stop-opacity:1"/>
   <stop offset="100%" style="stop-color:{{ theme.colors.blue }}; stop-opacity:1"/>
  </linearGradient>
  <linearGradient id="sunrise" x1="0%" x2="0%" y1="0%" y2="100%">
   <stop offset="0%" style="stop-color: {{ theme.colors.orange }}; stop-opacity:1"/>
   <stop offset="100%" style="stop-color: {{ theme.colors.yellow }}; stop-opacity:1"/>
  </linearGradient>
  <linearGradient id="telinkrin" x1="0%" x2="0%" y1="0%" y2="100%">
   <stop offset="0%" style="stop-color: {{ theme.colors.foreground }}; stop-opacity:1"/>
   <stop offset="100%" style="stop-color: {{ theme.colors.blue }}; stop-opacity:1"/>
  </linearGradient>
  <linearGradient id="60spsycho" x1="0%" x2="0%" y1="0%" y2="100%">
   <stop offset="0%" style="stop-color: {{ theme.colors.red }}; stop-opacity:1"/>
   <stop offset="25%" style="stop-color: {{ theme.colors.yellow }}; stop-opacity:1"/>
   <stop offset="50%" style="stop-color: {{ theme.colors.orange }}; stop-opacity:1"/>
   <stop offset="100%" style="stop-color: {{ theme.colors.green }}; stop-opacity:1"/>
  </linearGradient>
  <linearGradient id="90ssummer" x1="0%" x2="0%" y1="0%" y2="100%">
   <stop offset="0%" style="stop-color: {{ theme.colors.red }}; stop-opacity:1"/>
   <stop offset="20%" style="stop-color: {{ theme.colors.green }}; stop-opacity:1"/>
   <stop offset="50%" style="stop-color: {{ theme.colors.yellow }}; stop-opacity:1"/>
   <stop offset="100%" style="stop-color: {{ theme.colors.cyan }}; stop-opacity:1"/>
  </linearGradient>
  <clipPath id="_clipPath_Pq8gi0UFH0yVcqOiKSjNhmu1ToEQ47bH">
   <rect width="16" height="16"/>
  </clipPath>
 </defs>
 <path style="fill:url(#oomox)" class="ColorScheme-Text" d="M 2 0 L 0 10.667 L 16 10.667 L 14 0 L 2 0 Z M 0 11.333 L 0 16 L 16 16 L 16 11.333 L 0 11.333 Z M 1.333 12.667 L 2 12.667 L 2 14 L 3.333 14 L 3.333 12.667 L 4 12.667 L 4 14 L 5.333 14 L 5.333 12.667 L 6 12.667 L 6 14 L 7.333 14 L 7.333 12.667 L 8 12.667 L 8 14 L 9.333 14 L 9.333 12.667 L 10 12.667 L 10 14.667 L 1.333 14.667 L 1.333 12.667 Z M 12 13.333 L 14.667 13.333 L 14.667 14.667 L 12 14.667 L 12 13.333 Z"/>
</svg>
