<svg xmlns="http://www.w3.org/2000/svg" width="16" height="16" version="1.1">
 <defs>
  <style id="current-color-scheme" type="text/css">
   .ColorScheme-Text { color:{{ theme.colors.blue }}; } .ColorScheme-Highlight { color:{{ theme.colors.blue }}; }
  </style>
  <linearGradient id="arrongin" x1="0%" x2="0%" y1="0%" y2="100%">
   <stop offset="0%" style="stop-color:{{ theme.colors.orange }}; stop-opacity:1"/>
   <stop offset="100%" style="stop-color:{{ theme.colors.orange }}; stop-opacity:1"/>
  </linearGradient>
  <linearGradient id="aurora" x1="0%" x2="0%" y1="0%" y2="100%">
   <stop offset="0%" style="stop-color:{{ theme.colors.cyan }}; stop-opacity:1"/>
   <stop offset="100%" style="stop-color:{{ theme.colors.magenta }}; stop-opacity:1"/>
  </linearGradient>
  <linearGradient id="fitdance" x1="0%" x2="0%" y1="0%" y2="100%">
   <stop offset="0%" style="stop-color:{{ theme.colors.green }}; stop-opacity:1"/>
   <stop offset="100%" style="stop-color:{{ theme.colors.cyan }}; stop-opacity:1"/>
  </linearGradient>
  <linearGradient id="oomox" x1="0%" x2="0%" y1="0%" y2="100%">
   <stop offset="0%" style="stop-color:{{ theme.colors.gray }}; stop-opacity:1"/>
   <stop offset="100%" style="stop-color:{{ theme.colors.gray }}; stop-opacity:1"/>
  </linearGradient>
  <linearGradient id="rainblue" x1="0%" x2="0%" y1="0%" y2="100%">
   <stop offset="0%" style="stop-color:{{ theme.colors.green }}; stop-opacity:1"/>
   <stop offset="100%" style="stop-color:{{ theme.colors.blue }}; stop-opacity:1"/>
  </linearGradient>
  <linearGradient id="sunrise" x1="0%" x2="0%" y1="0%" y2="100%">
   <stop offset="0%" style="stop-color: {{ theme.colors.orange }}; stop-opacity:1"/>
   <stop offset="100%" style="stop-color: {{ theme.colors.yellow }}; stop-opacity:1"/>
  </linearGradient>
  <linearGradient id="telinkrin" x1="0%" x2="0%" y1="0%" y2="100%">
   <stop offset="0%" style="stop-color: {{ theme.colors.foreground }}; stop-opacity:1"/>
   <stop offset="100%" style="stop-color: {{ theme.colors.blue }}; stop-opacity:1"/>
  </linearGradient>
  <linearGradient id="60spsycho" x1="0%" x2="0%" y1="0%" y2="100%">
   <stop offset="0%" style="stop-color: {{ theme.colors.red }}; stop-opacity:1"/>
   <stop offset="25%" style="stop-color: {{ theme.colors.yellow }}; stop-opacity:1"/>
   <stop offset="50%" style="stop-color: {{ theme.colors.orange }}; stop-opacity:1"/>
   <stop offset="100%" style="stop-color: {{ theme.colors.green }}; stop-opacity:1"/>
  </linearGradient>
  <linearGradient id="90ssummer" x1="0%" x2="0%" y1="0%" y2="100%">
   <stop offset="0%" style="stop-color: {{ theme.colors.red }}; stop-opacity:1"/>
   <stop offset="20%" style="stop-color: {{ theme.colors.green }}; stop-opacity:1"/>
   <stop offset="50%" style="stop-color: {{ theme.colors.yellow }}; stop-opacity:1"/>
   <stop offset="100%" style="stop-color: {{ theme.colors.cyan }}; stop-opacity:1"/>
  </linearGradient>
  <clipPath id="_clipPath_Pq8gi0UFH0yVcqOiKSjNhmu1ToEQ47bH">
   <rect width="16" height="16"/>
  </clipPath>
 </defs>
 <g transform="translate(-311.99997,-199.99994)">
  <path d="m 314.24609,211.00977 c -0.26827,0.002 -0.47244,-0.0285 -0.75781,0.084 -0.14268,0.0563 -0.30699,0.18646 -0.39062,0.3457 -0.0836,0.15925 -0.0977,0.31178 -0.0977,0.45313 v 2.22461 c 0,0.14134 0.0141,0.29391 0.0977,0.45312 0.0836,0.15921 0.24787,0.28934 0.39062,0.34571 0.2855,0.11272 0.48934,0.082 0.75781,0.084 h 0.002 1.5039 0.002 c 0.26827,-0.002 0.47244,0.0285 0.75781,-0.084 0.14268,-0.0563 0.30698,-0.18646 0.39062,-0.34571 0.0836,-0.15924 0.0977,-0.31177 0.0977,-0.45312 v -2.22461 c 0,-0.14135 -0.0141,-0.29391 -0.0977,-0.45313 -0.0836,-0.15921 -0.24787,-0.28934 -0.39062,-0.3457 -0.28549,-0.11272 -0.48934,-0.082 -0.75781,-0.084 h -0.002 -1.5039 z m 0.004,1 h 1.5 c 0.16935,0.002 0.18943,0.003 0.25,0.008 v 1.97461 c -0.0607,0.004 -0.0805,0.006 -0.25,0.008 h -1.49609 -0.004 c -0.16935,-0.002 -0.18943,-0.003 -0.25,-0.008 v -1.97461 c 0.0607,-0.004 0.0805,-0.006 0.25,-0.008 z" style="solid-color:{{ theme.colors.blue }};fill:url(#oomox)" class="ColorScheme-Text" />
  <path d="m 314.24609,206.00977 c -0.26827,0.002 -0.47244,-0.0285 -0.75781,0.084 -0.14268,0.0563 -0.30699,0.18646 -0.39062,0.3457 -0.0836,0.15925 -0.0977,0.31178 -0.0977,0.45313 v 2.22461 c 0,0.14134 0.0141,0.29391 0.0977,0.45312 0.0836,0.15921 0.24787,0.28934 0.39062,0.34571 0.2855,0.11272 0.48934,0.082 0.75781,0.084 h 0.002 1.5039 0.002 c 0.26827,-0.002 0.47244,0.0285 0.75781,-0.084 0.14268,-0.0563 0.30698,-0.18646 0.39062,-0.34571 0.0836,-0.15924 0.0977,-0.31177 0.0977,-0.45312 v -2.22461 c 0,-0.14135 -0.0141,-0.29391 -0.0977,-0.45313 -0.0836,-0.15921 -0.24787,-0.28934 -0.39062,-0.3457 -0.28549,-0.11272 -0.48934,-0.082 -0.75781,-0.084 h -0.002 -1.5039 z m 0.004,1 h 1.5 c 0.16935,0.002 0.18943,0.003 0.25,0.008 v 1.97461 c -0.0607,0.004 -0.0805,0.006 -0.25,0.008 h -1.49609 -0.004 c -0.16935,-0.002 -0.18943,-0.003 -0.25,-0.008 v -1.97461 c 0.0607,-0.004 0.0805,-0.006 0.25,-0.008 z" style="solid-color:{{ theme.colors.blue }};fill:url(#oomox)" class="ColorScheme-Text" />
  <path d="m 314.24609,201.00977 c -0.26827,0.002 -0.47244,-0.0285 -0.75781,0.084 -0.14268,0.0563 -0.30699,0.18646 -0.39062,0.3457 -0.0836,0.15925 -0.0977,0.31178 -0.0977,0.45313 v 2.22461 c 0,0.14134 0.0141,0.29391 0.0977,0.45312 0.0836,0.15921 0.24787,0.28934 0.39062,0.34571 0.2855,0.11272 0.48934,0.082 0.75781,0.084 h 0.002 1.5039 0.002 c 0.26827,-0.002 0.47244,0.0285 0.75781,-0.084 0.14268,-0.0563 0.30698,-0.18646 0.39062,-0.34571 0.0836,-0.15924 0.0977,-0.31177 0.0977,-0.45312 v -2.22461 c 0,-0.14135 -0.0141,-0.29391 -0.0977,-0.45313 -0.0836,-0.15921 -0.24787,-0.28934 -0.39062,-0.3457 -0.28549,-0.11272 -0.48934,-0.082 -0.75781,-0.084 h -0.002 -1.5039 z m 0.004,1 h 1.5 c 0.16935,0.002 0.18943,0.003 0.25,0.008 v 1.97461 c -0.0607,0.004 -0.0805,0.006 -0.25,0.008 h -1.49609 -0.004 c -0.16935,-0.002 -0.18943,-0.003 -0.25,-0.008 v -1.97461 c 0.0607,-0.004 0.0805,-0.006 0.25,-0.008 z" style="solid-color:{{ theme.colors.blue }};fill:url(#oomox)" class="ColorScheme-Text" />
  <path d="m 319.24609,211.00977 c -0.26827,0.002 -0.47244,-0.0285 -0.75781,0.084 -0.14268,0.0563 -0.30699,0.18646 -0.39062,0.3457 -0.0836,0.15925 -0.0977,0.31178 -0.0977,0.45313 v 2.22461 c 0,0.14134 0.0141,0.29391 0.0977,0.45312 0.0836,0.15921 0.24787,0.28934 0.39062,0.34571 0.2855,0.11272 0.48934,0.082 0.75781,0.084 h 0.002 1.5039 0.002 c 0.26827,-0.002 0.47244,0.0285 0.75781,-0.084 0.14268,-0.0563 0.30698,-0.18646 0.39062,-0.34571 0.0836,-0.15924 0.0977,-0.31177 0.0977,-0.45312 v -2.22461 c 0,-0.14135 -0.0141,-0.29391 -0.0977,-0.45313 -0.0836,-0.15921 -0.24787,-0.28934 -0.39062,-0.3457 -0.28549,-0.11272 -0.48934,-0.082 -0.75781,-0.084 h -0.002 -1.5039 z m 0.004,1 h 1.5 c 0.16935,0.002 0.18943,0.003 0.25,0.008 v 1.97461 c -0.0607,0.004 -0.0805,0.006 -0.25,0.008 h -1.49609 -0.004 c -0.16935,-0.002 -0.18943,-0.003 -0.25,-0.008 v -1.97461 c 0.0607,-0.004 0.0805,-0.006 0.25,-0.008 z" style="solid-color:{{ theme.colors.blue }};fill:url(#oomox)" class="ColorScheme-Text" />
  <path d="m 319.24609,206.00977 c -0.26827,0.002 -0.47244,-0.0285 -0.75781,0.084 -0.14268,0.0563 -0.30699,0.18646 -0.39062,0.3457 -0.0836,0.15925 -0.0977,0.31178 -0.0977,0.45313 v 2.22461 c 0,0.14134 0.0141,0.29391 0.0977,0.45312 0.0836,0.15921 0.24787,0.28934 0.39062,0.34571 0.2855,0.11272 0.48934,0.082 0.75781,0.084 h 0.002 1.5039 0.002 c 0.26827,-0.002 0.47244,0.0285 0.75781,-0.084 0.14268,-0.0563 0.30698,-0.18646 0.39062,-0.34571 0.0836,-0.15924 0.0977,-0.31177 0.0977,-0.45312 v -2.22461 c 0,-0.14135 -0.0141,-0.29391 -0.0977,-0.45313 -0.0836,-0.15921 -0.24787,-0.28934 -0.39062,-0.3457 -0.28549,-0.11272 -0.48934,-0.082 -0.75781,-0.084 h -0.002 -1.5039 z m 0.004,1 h 1.5 c 0.16935,0.002 0.18943,0.003 0.25,0.008 v 1.97461 c -0.0607,0.004 -0.0805,0.006 -0.25,0.008 h -1.49609 -0.004 c -0.16935,-0.002 -0.18943,-0.003 -0.25,-0.008 v -1.97461 c 0.0607,-0.004 0.0805,-0.006 0.25,-0.008 z" style="solid-color:{{ theme.colors.blue }};fill:url(#oomox)" class="ColorScheme-Text" />
  <path d="m 319.24609,201.00977 c -0.26827,0.002 -0.47244,-0.0285 -0.75781,0.084 -0.14268,0.0563 -0.30699,0.18646 -0.39062,0.3457 -0.0836,0.15925 -0.0977,0.31178 -0.0977,0.45313 v 2.22461 c 0,0.14134 0.0141,0.29391 0.0977,0.45312 0.0836,0.15921 0.24787,0.28934 0.39062,0.34571 0.2855,0.11272 0.48934,0.082 0.75781,0.084 h 0.002 1.5039 0.002 c 0.26827,-0.002 0.47244,0.0285 0.75781,-0.084 0.14268,-0.0563 0.30698,-0.18646 0.39062,-0.34571 0.0836,-0.15924 0.0977,-0.31177 0.0977,-0.45312 v -2.22461 c 0,-0.14135 -0.0141,-0.29391 -0.0977,-0.45313 -0.0836,-0.15921 -0.24787,-0.28934 -0.39062,-0.3457 -0.28549,-0.11272 -0.48934,-0.082 -0.75781,-0.084 h -0.002 -1.5039 z m 0.004,1 h 1.5 c 0.16935,0.002 0.18943,0.003 0.25,0.008 v 1.97461 c -0.0607,0.004 -0.0805,0.006 -0.25,0.008 h -1.49609 -0.004 c -0.16935,-0.002 -0.18943,-0.003 -0.25,-0.008 v -1.97461 c 0.0607,-0.004 0.0805,-0.006 0.25,-0.008 z" style="solid-color:{{ theme.colors.blue }};fill:url(#oomox)" class="ColorScheme-Text" />
  <path d="m 324.24609,211.00977 c -0.26827,0.002 -0.47244,-0.0285 -0.75781,0.084 -0.14268,0.0563 -0.30699,0.18646 -0.39062,0.3457 -0.0836,0.15925 -0.0977,0.31178 -0.0977,0.45313 v 2.22461 c 0,0.14134 0.0141,0.29391 0.0977,0.45312 0.0836,0.15921 0.24787,0.28934 0.39062,0.34571 0.2855,0.11272 0.48934,0.082 0.75781,0.084 h 0.002 1.5039 0.002 c 0.26827,-0.002 0.47244,0.0285 0.75781,-0.084 0.14268,-0.0563 0.30698,-0.18646 0.39062,-0.34571 0.0836,-0.15924 0.0977,-0.31177 0.0977,-0.45312 v -2.22461 c 0,-0.14135 -0.0141,-0.29391 -0.0977,-0.45313 -0.0836,-0.15921 -0.24787,-0.28934 -0.39062,-0.3457 -0.28549,-0.11272 -0.48934,-0.082 -0.75781,-0.084 h -0.002 -1.5039 z m 0.004,1 h 1.5 c 0.16935,0.002 0.18943,0.003 0.25,0.008 v 1.97461 c -0.0607,0.004 -0.0805,0.006 -0.25,0.008 h -1.49609 -0.004 c -0.16935,-0.002 -0.18943,-0.003 -0.25,-0.008 v -1.97461 c 0.0607,-0.004 0.0805,-0.006 0.25,-0.008 z" style="solid-color:{{ theme.colors.blue }};fill:url(#oomox)" class="ColorScheme-Text" />
  <path d="m 324.24609,206.00977 c -0.26827,0.002 -0.47244,-0.0285 -0.75781,0.084 -0.14268,0.0563 -0.30699,0.18646 -0.39062,0.3457 -0.0836,0.15925 -0.0977,0.31178 -0.0977,0.45313 v 2.22461 c 0,0.14134 0.0141,0.29391 0.0977,0.45312 0.0836,0.15921 0.24787,0.28934 0.39062,0.34571 0.2855,0.11272 0.48934,0.082 0.75781,0.084 h 0.002 1.5039 0.002 c 0.26827,-0.002 0.47244,0.0285 0.75781,-0.084 0.14268,-0.0563 0.30698,-0.18646 0.39062,-0.34571 0.0836,-0.15924 0.0977,-0.31177 0.0977,-0.45312 v -2.22461 c 0,-0.14135 -0.0141,-0.29391 -0.0977,-0.45313 -0.0836,-0.15921 -0.24787,-0.28934 -0.39062,-0.3457 -0.28549,-0.11272 -0.48934,-0.082 -0.75781,-0.084 h -0.002 -1.5039 z m 0.004,1 h 1.5 c 0.16935,0.002 0.18943,0.003 0.25,0.008 v 1.97461 c -0.0607,0.004 -0.0805,0.006 -0.25,0.008 h -1.49609 -0.004 c -0.16935,-0.002 -0.18943,-0.003 -0.25,-0.008 v -1.97461 c 0.0607,-0.004 0.0805,-0.006 0.25,-0.008 z" style="solid-color:{{ theme.colors.blue }};fill:url(#oomox)" class="ColorScheme-Text" />
  <path d="m 324.24609,201.00977 c -0.26827,0.002 -0.47244,-0.0285 -0.75781,0.084 -0.14268,0.0563 -0.30699,0.18646 -0.39062,0.3457 -0.0836,0.15925 -0.0977,0.31178 -0.0977,0.45313 v 2.22461 c 0,0.14134 0.0141,0.29391 0.0977,0.45312 0.0836,0.15921 0.24787,0.28934 0.39062,0.34571 0.2855,0.11272 0.48934,0.082 0.75781,0.084 h 0.002 1.5039 0.002 c 0.26827,-0.002 0.47244,0.0285 0.75781,-0.084 0.14268,-0.0563 0.30698,-0.18646 0.39062,-0.34571 0.0836,-0.15924 0.0977,-0.31177 0.0977,-0.45312 v -2.22461 c 0,-0.14135 -0.0141,-0.29391 -0.0977,-0.45313 -0.0836,-0.15921 -0.24787,-0.28934 -0.39062,-0.3457 -0.28549,-0.11272 -0.48934,-0.082 -0.75781,-0.084 h -0.002 -1.5039 z m 0.004,1 h 1.5 c 0.16935,0.002 0.18943,0.003 0.25,0.008 v 1.97461 c -0.0607,0.004 -0.0805,0.006 -0.25,0.008 h -1.49609 -0.004 c -0.16935,-0.002 -0.18943,-0.003 -0.25,-0.008 v -1.97461 c 0.0607,-0.004 0.0805,-0.006 0.25,-0.008 z" style="solid-color:{{ theme.colors.blue }};fill:url(#oomox)" class="ColorScheme-Text" />
 </g>
</svg>
