<svg xmlns="http://www.w3.org/2000/svg" width="16" height="16" version="1.1">
 <defs>
  <style id="current-color-scheme" type="text/css">
   .ColorScheme-Text { color:{{ theme.colors.blue }}; } .ColorScheme-Highlight { color:{{ theme.colors.blue }}; }
  </style>
  <linearGradient id="arrongin" x1="0%" x2="0%" y1="0%" y2="100%">
   <stop offset="0%" style="stop-color:{{ theme.colors.orange }}; stop-opacity:1"/>
   <stop offset="100%" style="stop-color:{{ theme.colors.orange }}; stop-opacity:1"/>
  </linearGradient>
  <linearGradient id="aurora" x1="0%" x2="0%" y1="0%" y2="100%">
   <stop offset="0%" style="stop-color:{{ theme.colors.cyan }}; stop-opacity:1"/>
   <stop offset="100%" style="stop-color:{{ theme.colors.magenta }}; stop-opacity:1"/>
  </linearGradient>
  <linearGradient id="fitdance" x1="0%" x2="0%" y1="0%" y2="100%">
   <stop offset="0%" style="stop-color:{{ theme.colors.green }}; stop-opacity:1"/>
   <stop offset="100%" style="stop-color:{{ theme.colors.cyan }}; stop-opacity:1"/>
  </linearGradient>
  <linearGradient id="oomox" x1="0%" x2="0%" y1="0%" y2="100%">
   <stop offset="0%" style="stop-color:{{ theme.colors.gray }}; stop-opacity:1"/>
   <stop offset="100%" style="stop-color:{{ theme.colors.gray }}; stop-opacity:1"/>
  </linearGradient>
  <linearGradient id="rainblue" x1="0%" x2="0%" y1="0%" y2="100%">
   <stop offset="0%" style="stop-color:{{ theme.colors.green }}; stop-opacity:1"/>
   <stop offset="100%" style="stop-color:{{ theme.colors.blue }}; stop-opacity:1"/>
  </linearGradient>
  <linearGradient id="sunrise" x1="0%" x2="0%" y1="0%" y2="100%">
   <stop offset="0%" style="stop-color: {{ theme.colors.orange }}; stop-opacity:1"/>
   <stop offset="100%" style="stop-color: {{ theme.colors.yellow }}; stop-opacity:1"/>
  </linearGradient>
  <linearGradient id="telinkrin" x1="0%" x2="0%" y1="0%" y2="100%">
   <stop offset="0%" style="stop-color: {{ theme.colors.foreground }}; stop-opacity:1"/>
   <stop offset="100%" style="stop-color: {{ theme.colors.blue }}; stop-opacity:1"/>
  </linearGradient>
  <linearGradient id="60spsycho" x1="0%" x2="0%" y1="0%" y2="100%">
   <stop offset="0%" style="stop-color: {{ theme.colors.red }}; stop-opacity:1"/>
   <stop offset="25%" style="stop-color: {{ theme.colors.yellow }}; stop-opacity:1"/>
   <stop offset="50%" style="stop-color: {{ theme.colors.orange }}; stop-opacity:1"/>
   <stop offset="100%" style="stop-color: {{ theme.colors.green }}; stop-opacity:1"/>
  </linearGradient>
  <linearGradient id="90ssummer" x1="0%" x2="0%" y1="0%" y2="100%">
   <stop offset="0%" style="stop-color: {{ theme.colors.red }}; stop-opacity:1"/>
   <stop offset="20%" style="stop-color: {{ theme.colors.green }}; stop-opacity:1"/>
   <stop offset="50%" style="stop-color: {{ theme.colors.yellow }}; stop-opacity:1"/>
   <stop offset="100%" style="stop-color: {{ theme.colors.cyan }}; stop-opacity:1"/>
  </linearGradient>
  <clipPath id="_clipPath_Pq8gi0UFH0yVcqOiKSjNhmu1ToEQ47bH">
   <rect width="16" height="16"/>
  </clipPath>
 </defs>
 <g transform="translate(-272,-160)">
  <path d="m 280,165 a 3,3 0 0 0 -3,3 3,3 0 0 0 3,3 3,3 0 0 0 3,-3 3,3 0 0 0 -3,-3 z m 0,1.5 a 1.5,1.5 0 0 1 1.5,1.5 1.5,1.5 0 0 1 -1.5,1.5 1.5,1.5 0 0 1 -1.5,-1.5 1.5,1.5 0 0 1 1.5,-1.5 z" style="fill:url(#oomox)" class="ColorScheme-Text" />
  <path d="m 280,160 a 8,8 0 0 0 -8,8 8,8 0 0 0 8,8 8,8 0 0 0 8,-8 8,8 0 0 0 -8,-8 z m 0,1 a 7,7 0 0 1 7,7 7,7 0 0 1 -7,7 7,7 0 0 1 -7,-7 7,7 0 0 1 7,-7 z" style="fill:url(#oomox)" class="ColorScheme-Text" />
 </g>
</svg>
