<svg xmlns="http://www.w3.org/2000/svg" width="16" height="16">
 <defs>
  <style id="current-color-scheme" type="text/css">
   .ColorScheme-Text { color:{{ theme.colors.blue }}; } .ColorScheme-Highlight { color:{{ theme.colors.blue }}; }
  </style>
  <linearGradient id="arrongin" x1="0%" x2="0%" y1="0%" y2="100%">
   <stop offset="0%" style="stop-color:{{ theme.colors.orange }}; stop-opacity:1"/>
   <stop offset="100%" style="stop-color:{{ theme.colors.orange }}; stop-opacity:1"/>
  </linearGradient>
  <linearGradient id="aurora" x1="0%" x2="0%" y1="0%" y2="100%">
   <stop offset="0%" style="stop-color:{{ theme.colors.cyan }}; stop-opacity:1"/>
   <stop offset="100%" style="stop-color:{{ theme.colors.magenta }}; stop-opacity:1"/>
  </linearGradient>
  <linearGradient id="fitdance" x1="0%" x2="0%" y1="0%" y2="100%">
   <stop offset="0%" style="stop-color:{{ theme.colors.green }}; stop-opacity:1"/>
   <stop offset="100%" style="stop-color:{{ theme.colors.cyan }}; stop-opacity:1"/>
  </linearGradient>
  <linearGradient id="oomox" x1="0%" x2="0%" y1="0%" y2="100%">
   <stop offset="0%" style="stop-color:{{ theme.colors.gray }}; stop-opacity:1"/>
   <stop offset="100%" style="stop-color:{{ theme.colors.gray }}; stop-opacity:1"/>
  </linearGradient>
  <linearGradient id="rainblue" x1="0%" x2="0%" y1="0%" y2="100%">
   <stop offset="0%" style="stop-color:{{ theme.colors.green }}; stop-opacity:1"/>
   <stop offset="100%" style="stop-color:{{ theme.colors.blue }}; stop-opacity:1"/>
  </linearGradient>
  <linearGradient id="sunrise" x1="0%" x2="0%" y1="0%" y2="100%">
   <stop offset="0%" style="stop-color: {{ theme.colors.orange }}; stop-opacity:1"/>
   <stop offset="100%" style="stop-color: {{ theme.colors.yellow }}; stop-opacity:1"/>
  </linearGradient>
  <linearGradient id="telinkrin" x1="0%" x2="0%" y1="0%" y2="100%">
   <stop offset="0%" style="stop-color: {{ theme.colors.foreground }}; stop-opacity:1"/>
   <stop offset="100%" style="stop-color: {{ theme.colors.blue }}; stop-opacity:1"/>
  </linearGradient>
  <linearGradient id="60spsycho" x1="0%" x2="0%" y1="0%" y2="100%">
   <stop offset="0%" style="stop-color: {{ theme.colors.red }}; stop-opacity:1"/>
   <stop offset="25%" style="stop-color: {{ theme.colors.yellow }}; stop-opacity:1"/>
   <stop offset="50%" style="stop-color: {{ theme.colors.orange }}; stop-opacity:1"/>
   <stop offset="100%" style="stop-color: {{ theme.colors.green }}; stop-opacity:1"/>
  </linearGradient>
  <linearGradient id="90ssummer" x1="0%" x2="0%" y1="0%" y2="100%">
   <stop offset="0%" style="stop-color: {{ theme.colors.red }}; stop-opacity:1"/>
   <stop offset="20%" style="stop-color: {{ theme.colors.green }}; stop-opacity:1"/>
   <stop offset="50%" style="stop-color: {{ theme.colors.yellow }}; stop-opacity:1"/>
   <stop offset="100%" style="stop-color: {{ theme.colors.cyan }}; stop-opacity:1"/>
  </linearGradient>
  <clipPath id="_clipPath_Pq8gi0UFH0yVcqOiKSjNhmu1ToEQ47bH">
   <rect width="16" height="16"/>
  </clipPath>
 </defs>
 <g transform="translate(-672 -60)">
  <path style="fill:url(#oomox)" class="ColorScheme-Text" d="M679.852 66h3.693l-4.338 6.241 1.672.174-4.184 3.578 1.964-1.036c.318.038 1.01.064 1.337.064A7.005 7.005 0 0 0 687 68.015c-.016-2.468-1.28-5.007-4.003-6.33l.16-1.676zM673 68.015a6.99 6.99 0 0 0 3.581 6.114l.319-3.72 1.01 1.206L679.715 68H676l3.16-6.934a6.999 6.999 0 0 0-6.16 6.95"/>
 </g>
</svg>
