<svg width="64" height="64" version="1.1" xmlns="http://www.w3.org/2000/svg" xmlns:xlink="http://www.w3.org/1999/xlink">
 <defs>
  <path id="j" d="m39.821 11.402 3 5.196c2 3.464-32.641 23.464-34.641 20l-3-5.196c-2-3.464 32.641-23.464 34.641-20" color="{{ theme.colors.black }}"/>
  <path id="k" d="m21 4h6c4 0 4 40 0 40h-6c-4 0-4-40 0-40" color="{{ theme.colors.black }}"/>
 </defs>
 <g transform="matrix(1.3 0 0 1.3 .8 -20)" stroke-width=".76923">
  <path d="m8.179 27.402-3 5.196c-2 3.464 32.641 23.464 34.641 20l3-5.196c2-3.464-32.641-23.464-34.641-20" color="{{ theme.colors.black }}" fill="{{ theme.colors.cyan }}"/>
  <use transform="translate(0,16)" width="100%" height="100%" fill="{{ theme.colors.black }}" xlink:href="#j"/>
  <use transform="translate(0,16)" width="100%" height="100%" fill="{{ theme.colors.blue }}" xlink:href="#k"/>
 </g>
</svg>
