<svg xmlns="http://www.w3.org/2000/svg" xmlns:xlink="http://www.w3.org/1999/xlink" width="256" height="256" viewBox="0 0 67.733 67.733"><defs><linearGradient id="a"><stop offset="0" stop-color="{{ theme.colors.magenta }}"/><stop offset="1" stop-color="{{ theme.colors.foreground }}"/></linearGradient><linearGradient id="b"><stop offset="0" stop-color="{{ theme.colors.black }}"/><stop offset="1" stop-color="{{ theme.colors.red }}" stop-opacity="0"/></linearGradient><linearGradient id="c"><stop offset="0" stop-color="purple"/><stop offset=".727" stop-color="purple"/><stop offset="1" stop-color="{{ theme.colors.red }}" stop-opacity="0"/></linearGradient><linearGradient id="d"><stop offset="0" stop-color="{{ theme.colors.magenta }}"/><stop offset=".13" stop-color="{{ theme.colors.magenta }}"/><stop offset=".314" stop-color="{{ theme.colors.magenta }}"/><stop offset=".441" stop-color="{{ theme.colors.magenta }}"/><stop offset=".684" stop-color="{{ theme.colors.magenta }}"/><stop offset=".756" stop-color="{{ theme.colors.magenta }}"/><stop offset=".88" stop-color="{{ theme.colors.magenta }}"/><stop offset="1" stop-color="{{ theme.colors.magenta }}"/></linearGradient><linearGradient id="e"><stop offset="0" stop-color="{{ theme.colors.black }}"/><stop offset=".273" stop-color="{{ theme.colors.red }}"/><stop offset=".51" stop-color="{{ theme.colors.red }}"/><stop offset=".834" stop-color="{{ theme.colors.red }}"/><stop offset="1" stop-color="{{ theme.colors.red }}"/></linearGradient><linearGradient id="f"><stop offset="0" stop-color="{{ theme.colors.magenta }}"/><stop offset="1" stop-color="{{ theme.colors.magenta }}"/></linearGradient><linearGradient id="g"><stop offset="0" stop-color="{{ theme.colors.foreground }}"/><stop offset="1" stop-color="{{ theme.colors.foreground }}" stop-opacity="0"/></linearGradient><linearGradient id="h"><stop offset="0" stop-opacity=".502"/><stop offset="1" stop-opacity="0"/></linearGradient><linearGradient id="i"><stop offset="0" stop-color="gray" stop-opacity=".502"/><stop offset="1" stop-opacity="0"/></linearGradient><linearGradient id="j"><stop offset="0" stop-color="{{ theme.colors.orange }}"/><stop offset="1" stop-color="{{ theme.colors.orange }}"/></linearGradient><linearGradient id="k"><stop offset="0" stop-color="{{ theme.colors.orange }}"/><stop offset="1" stop-color="{{ theme.colors.foreground }}"/></linearGradient><linearGradient id="l"><stop offset="0" stop-color="{{ theme.colors.foreground }}"/><stop offset="1" stop-color="{{ theme.colors.foreground }}" stop-opacity="0"/></linearGradient><linearGradient id="m"><stop offset="0" stop-color="{{ theme.colors.orange }}"/><stop offset="1" stop-color="{{ theme.colors.orange }}"/></linearGradient><linearGradient id="n"><stop offset="0" stop-color="{{ theme.colors.orange }}"/><stop offset=".169" stop-color="{{ theme.colors.orange }}"/><stop offset=".838" stop-color="{{ theme.colors.orange }}"/><stop offset="1" stop-color="{{ theme.colors.orange }}"/></linearGradient><linearGradient id="o"><stop offset="0" stop-color="gray"/><stop offset="1" stop-color="{{ theme.colors.gray }}"/></linearGradient><linearGradient id="p"><stop offset="0" stop-color="{{ theme.colors.green }}"/><stop offset="1" stop-color="{{ theme.colors.green }}"/></linearGradient><linearGradient id="q"><stop offset="0" stop-color="{{ theme.colors.orange }}"/><stop offset=".169" stop-color="{{ theme.colors.orange }}"/><stop offset=".838" stop-color="{{ theme.colors.orange }}"/><stop offset="1" stop-color="{{ theme.colors.orange }}"/></linearGradient><linearGradient id="r"><stop offset="0" stop-color="{{ theme.colors.foreground }}" stop-opacity="0"/><stop offset=".493" stop-color="{{ theme.colors.foreground }}"/><stop offset="1" stop-color="{{ theme.colors.foreground }}" stop-opacity="0"/></linearGradient><linearGradient id="s"><stop offset="0" stop-opacity="0"/><stop offset=".493"/><stop offset="1" stop-opacity="0"/></linearGradient><linearGradient id="t"><stop offset="0" stop-color="{{ theme.colors.green }}"/><stop offset="1" stop-color="{{ theme.colors.green }}"/></linearGradient><linearGradient gradientUnits="userSpaceOnUse" y2="119.093" x2="-35.31" y1="401.584" x1="529.655" id="z" xlink:href="#u" gradientTransform="matrix(0 -.11989 .11989 0 .363 292.548)"/><linearGradient id="u"><stop offset="0" stop-color="{{ theme.colors.foreground }}"/><stop offset="1" stop-color="{{ theme.colors.foreground }}"/></linearGradient><linearGradient xlink:href="#v" id="x" x1="88" y1="88" x2="488" y2="488" gradientUnits="userSpaceOnUse"/><linearGradient id="v"><stop offset="0" stop-opacity=".588"/><stop offset=".88" stop-opacity="0"/><stop offset="1"/></linearGradient><filter id="y" x="-.053" width="1.106" y="-.044" height="1.088" color-interpolation-filters="sRGB"><feGaussianBlur stdDeviation="8.48"/></filter><filter id="w" x="-.013" width="1.026" y="-.011" height="1.022" color-interpolation-filters="sRGB"><feGaussianBlur stdDeviation="2.12"/></filter></defs><g transform="translate(0 -229.267)"><path d="M20.705 233.282c-9.339 0-10.344.959-10.298 10.317v38.632c-.046 9.358.96 10.317 10.298 10.317h25.97c9.34 0 10.299-.959 10.299-10.317V243.6c0-9.358-.96-10.317-10.298-10.317z" style="marker:none" color="{{ theme.colors.black }}" overflow="visible" opacity=".2" fill="none" stroke="{{ theme.colors.black }}" stroke-width="1.058" enable-background="accumulate"/><path style="marker:none" d="M189.843 74c-70.593 0-78.189 7.25-77.843 77.987v292.026c-.346 70.736 7.25 77.987 77.843 77.987h196.314c70.593 0 76.006-7.274 77.843-77.987V151.987C464 81.25 456.75 74 386.157 74z" transform="matrix(.1323 0 0 .1323 -4.41 223.757)" color="{{ theme.colors.black }}" overflow="visible" opacity=".1" filter="url(#w)" enable-background="accumulate"/><path d="M189.843 74c-70.593 0-78.189 7.25-77.843 77.987v292.026c-.346 70.736 7.25 77.987 77.843 77.987h196.314C456.75 522 464 514.75 464 444.013V151.987C464 81.25 456.75 74 386.157 74z" style="marker:none" transform="matrix(.1323 0 0 .1323 -4.41 223.757)" color="{{ theme.colors.black }}" overflow="visible" opacity=".3" fill="url(#x)" filter="url(#y)" enable-background="accumulate"/><path style="marker:none" d="M20.705 233.282c-9.339 0-10.344.959-10.298 10.317v38.632c-.046 9.358.96 10.317 10.298 10.317h25.97c9.34 0 10.299-.959 10.299-10.317V243.6c0-9.358-.96-10.317-10.298-10.317z" color="{{ theme.colors.black }}" overflow="visible" fill="url(#z)" enable-background="accumulate"/><rect width="4.233" height="7.408" x="20.461" y="243.336" rx=".529" ry=".529" fill="none" stroke="{{ theme.colors.gray }}" stroke-width="1.058" stroke-linecap="round" stroke-linejoin="round" enable-background="new"/><rect ry=".529" rx=".529" y="243.336" x="35.278" height="7.408" width="4.233" fill="none" stroke="{{ theme.colors.gray }}" stroke-width="1.058" stroke-linecap="round" stroke-linejoin="round" enable-background="new"/><rect width="4.233" height="7.408" x="42.686" y="243.336" rx=".529" ry=".529" fill="none" stroke="{{ theme.colors.gray }}" stroke-width="1.058" stroke-linecap="round" stroke-linejoin="round" enable-background="new"/><path d="M27.87 243.336h2.116v7.408" fill="none" stroke="{{ theme.colors.gray }}" stroke-width="1.058" stroke-linecap="round" enable-background="new"/><path d="M27.87 250.744h4.233v-2.117" fill="none" stroke="{{ theme.colors.gray }}" stroke-width="1.058" stroke-linecap="round" stroke-linejoin="round" enable-background="new"/><rect ry=".529" rx=".529" y="253.919" x="20.461" height="7.408" width="4.233" fill="none" stroke="{{ theme.colors.gray }}" stroke-width="1.058" stroke-linecap="round" stroke-linejoin="round" enable-background="new"/><path d="M35.278 253.92h2.116v7.407" fill="none" stroke="{{ theme.colors.gray }}" stroke-width="1.058" stroke-linecap="round" enable-background="new"/><path d="M35.278 261.327h4.233v-2.116" fill="none" stroke="{{ theme.colors.gray }}" stroke-width="1.058" stroke-linecap="round" stroke-linejoin="round" enable-background="new"/><rect width="4.233" height="7.408" x="27.869" y="253.919" rx=".529" ry=".529" fill="none" stroke="{{ theme.colors.gray }}" stroke-width="1.058" stroke-linecap="round" stroke-linejoin="round" enable-background="new"/><rect ry=".529" rx=".529" y="253.919" x="42.686" height="7.408" width="4.233" fill="none" stroke="{{ theme.colors.gray }}" stroke-width="1.058" stroke-linecap="round" stroke-linejoin="round" enable-background="new"/><rect ry=".529" rx=".529" y="264.502" x="27.869" height="7.408" width="4.233" fill="none" stroke="{{ theme.colors.gray }}" stroke-width="1.058" stroke-linecap="round" stroke-linejoin="round" enable-background="new"/><rect width="4.233" height="7.408" x="35.278" y="264.502" rx=".529" ry=".529" fill="none" stroke="{{ theme.colors.gray }}" stroke-width="1.058" stroke-linecap="round" stroke-linejoin="round" enable-background="new"/><rect ry=".529" rx=".529" y="275.086" x="20.461" height="7.408" width="4.233" fill="none" stroke="{{ theme.colors.gray }}" stroke-width="1.058" stroke-linecap="round" stroke-linejoin="round" enable-background="new"/><rect ry=".529" rx=".529" y="275.086" x="42.686" height="7.408" width="4.233" fill="none" stroke="{{ theme.colors.gray }}" stroke-width="1.058" stroke-linecap="round" stroke-linejoin="round" enable-background="new"/><path d="M27.87 275.086h2.116v7.408" fill="none" stroke="{{ theme.colors.gray }}" stroke-width="1.058" stroke-linecap="round" enable-background="new"/><path d="M27.87 282.494h4.233v-2.117" fill="none" stroke="{{ theme.colors.gray }}" stroke-width="1.058" stroke-linecap="round" stroke-linejoin="round" enable-background="new"/><path d="M20.461 264.502h2.117v7.409" fill="none" stroke="{{ theme.colors.gray }}" stroke-width="1.058" stroke-linecap="round" enable-background="new"/><path d="M20.461 271.91h4.233v-2.116" fill="none" stroke="{{ theme.colors.gray }}" stroke-width="1.058" stroke-linecap="round" stroke-linejoin="round" enable-background="new"/><path d="M42.686 264.502h2.117v7.409" fill="none" stroke="{{ theme.colors.gray }}" stroke-width="1.058" stroke-linecap="round" enable-background="new"/><path d="M42.686 271.91h4.233v-2.116" fill="none" stroke="{{ theme.colors.gray }}" stroke-width="1.058" stroke-linecap="round" stroke-linejoin="round" enable-background="new"/><path d="M35.278 275.086h2.116v7.408" fill="none" stroke="{{ theme.colors.gray }}" stroke-width="1.058" stroke-linecap="round" enable-background="new"/><path d="M35.278 282.494h4.233v-2.117" fill="none" stroke="{{ theme.colors.gray }}" stroke-width="1.058" stroke-linecap="round" stroke-linejoin="round" enable-background="new"/><path style="marker:none" d="M33.69 233.282v59.266h12.986c9.339 0 10.055-.962 10.298-10.317V243.6c0-9.358-.96-10.317-10.298-10.317z" color="{{ theme.colors.black }}" overflow="visible" opacity=".1" fill="{{ theme.colors.foreground }}" enable-background="accumulate"/><path style="marker:none" d="M10.407 262.915v19.316c-.046 9.358.96 10.317 10.298 10.317h25.97c9.34 0 10.056-.962 10.299-10.317v-19.316z" color="{{ theme.colors.black }}" overflow="visible" opacity=".2" fill="{{ theme.colors.foreground }}" enable-background="accumulate"/><path style="marker:none" d="M41.099 292.548l15.875-15.875v5.95c-.014 8.994-1.006 9.925-10.1 9.925z" color="{{ theme.colors.black }}" overflow="visible" opacity=".4" fill="{{ theme.colors.foreground }}" enable-background="accumulate"/><path style="marker:none" d="M20.705 233.282c-9.339 0-10.344.959-10.298 10.317v.529c-.046-9.358.96-10.317 10.298-10.317h25.97c9.34 0 10.299.96 10.299 10.317v-.53c0-9.357-.96-10.316-10.298-10.316z" color="{{ theme.colors.black }}" overflow="visible" opacity=".6" fill="{{ theme.colors.foreground }}" enable-background="accumulate"/></g></svg>