<svg xmlns="http://www.w3.org/2000/svg" xmlns:xlink="http://www.w3.org/1999/xlink" width="256" height="256" viewBox="0 0 67.733 67.733"><defs><linearGradient id="a"><stop offset="0" stop-color="{{ theme.colors.green }}"/><stop offset="1" stop-color="{{ theme.colors.green }}"/></linearGradient><linearGradient id="c"><stop offset="0" stop-opacity="0"/><stop offset=".493"/><stop offset="1" stop-opacity="0"/></linearGradient><linearGradient id="b"><stop offset="0" stop-color="{{ theme.colors.green }}"/><stop offset="1" stop-color="{{ theme.colors.green }}" stop-opacity="0"/></linearGradient><linearGradient id="d"><stop offset="0" stop-color="{{ theme.colors.foreground }}"/><stop offset="1" stop-color="{{ theme.colors.yellow }}" stop-opacity="0"/></linearGradient><linearGradient id="e"><stop offset="0" stop-color="gray"/><stop offset="1" stop-color="{{ theme.colors.foreground }}"/></linearGradient><linearGradient id="f"><stop offset="0" stop-color="{{ theme.colors.foreground }}"/><stop offset="1" stop-color="{{ theme.colors.foreground }}"/></linearGradient><linearGradient id="g"><stop offset="0" stop-opacity=".502"/><stop offset="1" stop-opacity="0"/></linearGradient><linearGradient id="h"><stop offset="0"/><stop offset=".455" stop-opacity=".361"/><stop offset="1" stop-opacity="0"/></linearGradient><linearGradient id="i"><stop offset="0" stop-color="{{ theme.colors.blue }}"/><stop offset="1" stop-color="{{ theme.colors.blue }}"/></linearGradient><linearGradient id="j"><stop offset="0" stop-color="{{ theme.colors.orange }}"/><stop offset="1" stop-color="{{ theme.colors.orange }}"/></linearGradient><linearGradient id="k"><stop offset="0" stop-color="{{ theme.colors.yellow }}"/><stop offset="1" stop-color="{{ theme.colors.yellow }}"/></linearGradient><linearGradient id="l"><stop offset="0" stop-color="{{ theme.colors.green }}"/><stop offset="1" stop-color="{{ theme.colors.green }}"/></linearGradient><linearGradient id="m"><stop offset="0" stop-color="{{ theme.colors.black }}"/><stop offset="1" stop-color="{{ theme.colors.cyan }}" stop-opacity="0"/></linearGradient><linearGradient id="n"><stop offset="0" stop-color="maroon"/><stop offset="1" stop-color="{{ theme.colors.yellow }}" stop-opacity="0"/></linearGradient><linearGradient id="o"><stop offset="0" stop-color="{{ theme.colors.foreground }}" stop-opacity="0"/><stop offset=".493" stop-color="{{ theme.colors.foreground }}"/><stop offset="1" stop-color="{{ theme.colors.foreground }}" stop-opacity="0"/></linearGradient><linearGradient id="p"><stop offset="0" stop-color="{{ theme.colors.black }}"/><stop offset="1" stop-color="{{ theme.colors.green }}" stop-opacity="0"/></linearGradient><linearGradient id="q"><stop offset="0" stop-color="red"/><stop offset="1" stop-color="{{ theme.colors.yellow }}" stop-opacity="0"/></linearGradient><linearGradient id="r"><stop offset="0" stop-color="{{ theme.colors.cyan }}"/><stop offset="1" stop-color="{{ theme.colors.background }}"/></linearGradient><linearGradient id="s"><stop offset="0" stop-color="{{ theme.colors.cyan }}"/><stop offset="1" stop-color="{{ theme.colors.background }}"/></linearGradient><linearGradient id="t"><stop offset="0" stop-color="{{ theme.colors.black }}061"/><stop offset="1" stop-color="{{ theme.colors.cyan }}" stop-opacity="0"/></linearGradient><linearGradient id="u"><stop offset="0" stop-color="{{ theme.colors.blue }}"/><stop offset="1" stop-color="{{ theme.colors.blue }}"/></linearGradient><linearGradient id="v"><stop offset="0" stop-color="{{ theme.colors.gray }}"/><stop offset="1" stop-color="{{ theme.colors.background }}"/></linearGradient><linearGradient id="w"><stop offset="0" stop-color="{{ theme.colors.foreground }}"/><stop offset="1" stop-color="{{ theme.colors.foreground }}" stop-opacity="0"/></linearGradient><linearGradient id="x"><stop offset="0" stop-color="{{ theme.colors.gray }}"/><stop offset="1" stop-color="{{ theme.colors.background }}"/></linearGradient><linearGradient id="y"><stop offset="0" stop-color="{{ theme.colors.blue }}"/><stop offset="1" stop-color="{{ theme.colors.blue }}"/></linearGradient><linearGradient id="z"><stop offset="0" stop-color="{{ theme.colors.gray }}"/><stop offset="1" stop-color="{{ theme.colors.gray }}" stop-opacity=".5"/></linearGradient><linearGradient id="A"><stop offset="0" stop-color="{{ theme.colors.foreground }}"/><stop offset="1" stop-color="{{ theme.colors.cyan }}" stop-opacity="0"/></linearGradient><linearGradient id="B"><stop offset="0" stop-color="gray"/><stop offset="1" stop-color="{{ theme.colors.gray }}"/></linearGradient><linearGradient id="C"><stop offset="0" stop-color="{{ theme.colors.yellow }}"/><stop offset="1" stop-color="{{ theme.colors.yellow }}"/></linearGradient><linearGradient gradientUnits="userSpaceOnUse" y2="119.093" x2="-35.31" y1="401.584" x1="529.655" id="J" xlink:href="#D" gradientTransform="matrix(0 -.11989 .11989 0 .363 292.548)"/><linearGradient id="D"><stop offset="0" stop-color="{{ theme.colors.foreground }}"/><stop offset="1" stop-color="{{ theme.colors.foreground }}"/></linearGradient><linearGradient xlink:href="#E" id="H" x1="88" y1="88" x2="488" y2="488" gradientUnits="userSpaceOnUse"/><linearGradient id="E"><stop offset="0" stop-opacity=".588"/><stop offset=".88" stop-opacity="0"/><stop offset="1"/></linearGradient><filter id="I" x="-.053" width="1.106" y="-.044" height="1.088" color-interpolation-filters="sRGB"><feGaussianBlur stdDeviation="8.48"/></filter><filter id="G" x="-.013" width="1.026" y="-.011" height="1.022" color-interpolation-filters="sRGB"><feGaussianBlur stdDeviation="2.12"/></filter><linearGradient xlink:href="#F" id="K" x1="334.866" y1="140.23" x2="334.866" y2="160.631" gradientUnits="userSpaceOnUse"/><linearGradient id="F"><stop offset="0" stop-color="gray"/><stop offset="1" stop-color="{{ theme.colors.gray }}"/></linearGradient><linearGradient xlink:href="#F" id="L" gradientUnits="userSpaceOnUse" x1="334.866" y1="140.23" x2="334.866" y2="160.631"/><linearGradient xlink:href="#F" id="M" gradientUnits="userSpaceOnUse" x1="334.866" y1="140.23" x2="334.866" y2="160.631"/></defs><path d="M20.705 4.015c-9.339 0-10.344.96-10.298 10.317V52.965c-.046 9.357.96 10.317 10.298 10.317h25.97c9.34 0 10.299-.96 10.299-10.317V14.332c0-9.358-.96-10.317-10.298-10.317z" style="marker:none" color="{{ theme.colors.black }}" overflow="visible" opacity=".2" fill="none" stroke="{{ theme.colors.black }}" stroke-width="1.058" enable-background="accumulate"/><path style="marker:none" d="M189.843 74c-70.593 0-78.189 7.25-77.843 77.987v292.026c-.346 70.736 7.25 77.987 77.843 77.987h196.314c70.593 0 76.006-7.274 77.843-77.987V151.987C464 81.25 456.75 74 386.157 74z" transform="matrix(.1323 0 0 .1323 -4.41 -5.51)" color="{{ theme.colors.black }}" overflow="visible" opacity=".1" filter="url(#G)" enable-background="accumulate"/><path d="M189.843 74c-70.593 0-78.189 7.25-77.843 77.987v292.026c-.346 70.736 7.25 77.987 77.843 77.987h196.314C456.75 522 464 514.75 464 444.013V151.987C464 81.25 456.75 74 386.157 74z" style="marker:none" transform="matrix(.1323 0 0 .1323 -4.41 -5.51)" color="{{ theme.colors.black }}" overflow="visible" opacity=".3" fill="url(#H)" filter="url(#I)" enable-background="accumulate"/><path style="marker:none" d="M20.705 233.282c-9.339 0-10.344.959-10.298 10.317v38.632c-.046 9.358.96 10.317 10.298 10.317h25.97c9.34 0 10.299-.959 10.299-10.317V243.6c0-9.358-.96-10.317-10.298-10.317z" color="{{ theme.colors.black }}" overflow="visible" fill="url(#J)" enable-background="accumulate" transform="translate(0 -229.267)"/><path style="marker:none" d="M41.099 63.282l15.875-15.875v5.949c-.014 8.994-1.006 9.926-10.1 9.926z" color="{{ theme.colors.black }}" overflow="visible" opacity=".4" fill="{{ theme.colors.foreground }}" enable-background="accumulate"/><path style="marker:none" d="M20.705 4.015c-9.339 0-10.344.96-10.298 10.317v.53c-.046-9.358.96-10.318 10.298-10.318h25.97c9.34 0 10.299.96 10.299 10.317v-.529c0-9.358-.96-10.317-10.298-10.317z" color="{{ theme.colors.black }}" overflow="visible" opacity=".6" fill="{{ theme.colors.foreground }}" enable-background="accumulate"/><g transform="matrix(1.86766 0 0 1.86758 -593.844 -246.236)" stroke="url(#K)" stroke-width="1.133" enable-background="new" fill="none" stroke-linecap="square" stroke-linejoin="round"><path d="M344.21 147.664a8.5 8.5 0 0 1-4.958 10.053 8.5 8.5 0 0 1-10.614-3.603 8.5 8.5 0 0 1 2.187-10.994 8.5 8.5 0 0 1 11.185.733l-1.76 1.76" stroke="url(#L)" enable-background="new"/><circle r="2.267" cy="149.864" cx="336" stroke="url(#M)" enable-background="new"/></g><path style="marker:none" d="M33.69 4.015v59.267h12.986c9.339 0 10.055-.963 10.298-10.317V14.332c0-9.358-.96-10.317-10.298-10.317z" color="{{ theme.colors.black }}" overflow="visible" opacity=".1" fill="{{ theme.colors.foreground }}" enable-background="accumulate"/><path style="marker:none" d="M10.407 33.648v19.317c-.046 9.358.96 10.317 10.298 10.317h25.97c9.34 0 10.056-.963 10.299-10.317V33.648z" color="{{ theme.colors.black }}" overflow="visible" opacity=".2" fill="{{ theme.colors.foreground }}" enable-background="accumulate"/></svg>