<svg xmlns="http://www.w3.org/2000/svg" xmlns:xlink="http://www.w3.org/1999/xlink" width="256" height="256" viewBox="0 0 67.733 67.733"><defs><linearGradient id="a"><stop offset="0" stop-color="{{ theme.colors.magenta }}"/><stop offset="1" stop-color="{{ theme.colors.foreground }}"/></linearGradient><linearGradient id="b"><stop offset="0" stop-color="{{ theme.colors.black }}"/><stop offset="1" stop-color="{{ theme.colors.red }}" stop-opacity="0"/></linearGradient><linearGradient id="c"><stop offset="0" stop-color="purple"/><stop offset=".727" stop-color="purple"/><stop offset="1" stop-color="{{ theme.colors.red }}" stop-opacity="0"/></linearGradient><linearGradient id="d"><stop offset="0" stop-color="{{ theme.colors.magenta }}"/><stop offset=".13" stop-color="{{ theme.colors.magenta }}"/><stop offset=".314" stop-color="{{ theme.colors.magenta }}"/><stop offset=".441" stop-color="{{ theme.colors.magenta }}"/><stop offset=".684" stop-color="{{ theme.colors.magenta }}"/><stop offset=".756" stop-color="{{ theme.colors.magenta }}"/><stop offset=".88" stop-color="{{ theme.colors.magenta }}"/><stop offset="1" stop-color="{{ theme.colors.magenta }}"/></linearGradient><linearGradient id="e"><stop offset="0" stop-color="{{ theme.colors.black }}"/><stop offset=".273" stop-color="{{ theme.colors.red }}"/><stop offset=".51" stop-color="{{ theme.colors.red }}"/><stop offset=".834" stop-color="{{ theme.colors.red }}"/><stop offset="1" stop-color="{{ theme.colors.red }}"/></linearGradient><linearGradient id="f"><stop offset="0" stop-color="{{ theme.colors.magenta }}"/><stop offset="1" stop-color="{{ theme.colors.magenta }}"/></linearGradient><linearGradient id="g"><stop offset="0" stop-color="{{ theme.colors.foreground }}"/><stop offset="1" stop-color="{{ theme.colors.foreground }}" stop-opacity="0"/></linearGradient><linearGradient id="h"><stop offset="0" stop-opacity=".502"/><stop offset="1" stop-opacity="0"/></linearGradient><linearGradient id="i"><stop offset="0" stop-color="gray" stop-opacity=".502"/><stop offset="1" stop-opacity="0"/></linearGradient><linearGradient id="j"><stop offset="0" stop-color="{{ theme.colors.orange }}"/><stop offset="1" stop-color="{{ theme.colors.orange }}"/></linearGradient><linearGradient id="k"><stop offset="0" stop-color="{{ theme.colors.orange }}"/><stop offset="1" stop-color="{{ theme.colors.foreground }}"/></linearGradient><linearGradient id="l"><stop offset="0" stop-color="{{ theme.colors.foreground }}"/><stop offset="1" stop-color="{{ theme.colors.foreground }}" stop-opacity="0"/></linearGradient><linearGradient id="m"><stop offset="0" stop-color="{{ theme.colors.orange }}"/><stop offset="1" stop-color="{{ theme.colors.orange }}"/></linearGradient><linearGradient id="n"><stop offset="0" stop-color="{{ theme.colors.orange }}"/><stop offset=".169" stop-color="{{ theme.colors.orange }}"/><stop offset=".838" stop-color="{{ theme.colors.orange }}"/><stop offset="1" stop-color="{{ theme.colors.orange }}"/></linearGradient><linearGradient id="o"><stop offset="0" stop-color="gray"/><stop offset="1" stop-color="{{ theme.colors.gray }}"/></linearGradient><linearGradient id="p"><stop offset="0" stop-color="{{ theme.colors.green }}"/><stop offset="1" stop-color="{{ theme.colors.green }}"/></linearGradient><linearGradient id="q"><stop offset="0" stop-color="{{ theme.colors.orange }}"/><stop offset=".169" stop-color="{{ theme.colors.orange }}"/><stop offset=".838" stop-color="{{ theme.colors.orange }}"/><stop offset="1" stop-color="{{ theme.colors.orange }}"/></linearGradient><linearGradient id="r"><stop offset="0" stop-color="{{ theme.colors.foreground }}" stop-opacity="0"/><stop offset=".493" stop-color="{{ theme.colors.foreground }}"/><stop offset="1" stop-color="{{ theme.colors.foreground }}" stop-opacity="0"/></linearGradient><linearGradient id="s"><stop offset="0" stop-opacity="0"/><stop offset=".493"/><stop offset="1" stop-opacity="0"/></linearGradient><linearGradient id="t"><stop offset="0" stop-color="{{ theme.colors.green }}"/><stop offset="1" stop-color="{{ theme.colors.green }}"/></linearGradient><linearGradient gradientUnits="userSpaceOnUse" y2="119.093" x2="-35.31" y1="401.584" x1="529.655" id="z" xlink:href="#u" gradientTransform="matrix(0 -.11989 .11989 0 .363 292.548)"/><linearGradient id="u"><stop offset="0" stop-color="{{ theme.colors.foreground }}"/><stop offset="1" stop-color="{{ theme.colors.foreground }}"/></linearGradient><linearGradient xlink:href="#v" id="x" x1="88" y1="88" x2="488" y2="488" gradientUnits="userSpaceOnUse"/><linearGradient id="v"><stop offset="0" stop-opacity=".588"/><stop offset=".88" stop-opacity="0"/><stop offset="1"/></linearGradient><filter id="y" x="-.053" width="1.106" y="-.044" height="1.088" color-interpolation-filters="sRGB"><feGaussianBlur stdDeviation="8.48"/></filter><filter id="w" x="-.013" width="1.026" y="-.011" height="1.022" color-interpolation-filters="sRGB"><feGaussianBlur stdDeviation="2.12"/></filter></defs><g color="{{ theme.colors.black }}"><path d="M20.705 4.015c-9.339 0-10.344.96-10.298 10.317V52.965c-.046 9.357.96 10.317 10.298 10.317h25.97c9.34 0 10.299-.96 10.299-10.317V14.332c0-9.358-.96-10.317-10.298-10.317z" style="marker:none" overflow="visible" opacity=".2" fill="none" stroke="{{ theme.colors.black }}" stroke-width="1.058" enable-background="accumulate"/><path style="marker:none" d="M189.843 74c-70.593 0-78.189 7.25-77.843 77.987v292.026c-.346 70.736 7.25 77.987 77.843 77.987h196.314c70.593 0 76.006-7.274 77.843-77.987V151.987C464 81.25 456.75 74 386.157 74z" transform="matrix(.1323 0 0 .1323 -4.41 -5.51)" overflow="visible" opacity=".1" filter="url(#w)" enable-background="accumulate"/><path d="M189.843 74c-70.593 0-78.189 7.25-77.843 77.987v292.026c-.346 70.736 7.25 77.987 77.843 77.987h196.314C456.75 522 464 514.75 464 444.013V151.987C464 81.25 456.75 74 386.157 74z" style="marker:none" transform="matrix(.1323 0 0 .1323 -4.41 -5.51)" overflow="visible" opacity=".3" fill="url(#x)" filter="url(#y)" enable-background="accumulate"/><path style="marker:none" d="M20.705 233.282c-9.339 0-10.344.959-10.298 10.317v38.632c-.046 9.358.96 10.317 10.298 10.317h25.97c9.34 0 10.299-.959 10.299-10.317V243.6c0-9.358-.96-10.317-10.298-10.317z" overflow="visible" fill="url(#z)" enable-background="accumulate" transform="translate(0 -229.267)"/><path style="marker:none" d="M20.705 4.015c-9.339 0-10.344.96-10.298 10.317v.53c-.046-9.358.96-10.318 10.298-10.318h25.97c9.34 0 10.299.96 10.299 10.317v-.529c0-9.358-.96-10.317-10.298-10.317z" overflow="visible" opacity=".6" fill="{{ theme.colors.foreground }}" enable-background="accumulate"/><g fill="{{ theme.colors.gray }}" enable-background="new" font-weight="400" font-family="sans-serif" white-space="normal"><path d="M33.69 17.773c-8.759 0-15.875 7.117-15.875 15.875 0 8.759 7.116 15.875 15.875 15.875s15.875-7.116 15.875-15.875c0-8.758-7.116-15.875-15.875-15.875zm0 1.588a14.287 14.287 0 0 1 14.288 14.287A14.287 14.287 0 0 1 33.69 47.936a14.287 14.287 0 0 1-14.287-14.288A14.287 14.287 0 0 1 33.69 19.361z" style="line-height:normal;text-indent:0;text-align:start;text-decoration-line:none;text-decoration-style:solid;text-decoration-color:{{ theme.colors.black }};text-transform:none;shape-padding:0;isolation:auto;mix-blend-mode:normal;marker:none" overflow="visible" enable-background="accumulate"/><path d="M32.632 31.532v10.583h2.117V31.532zM33.69 25.71a1.588 1.588 0 1 0 0 3.176 1.588 1.588 0 0 0 0-3.175z" style="line-height:normal;text-indent:0;text-align:start;text-decoration-line:none;text-decoration-style:solid;text-decoration-color:{{ theme.colors.black }};text-transform:none;shape-padding:0;isolation:auto;mix-blend-mode:normal;marker:none" overflow="visible" enable-background="accumulate"/></g><path style="marker:none" d="M33.69 4.015v59.267h12.986c9.339 0 10.055-.963 10.298-10.317V14.332c0-9.358-.96-10.317-10.298-10.317z" overflow="visible" opacity=".1" fill="{{ theme.colors.foreground }}" enable-background="accumulate"/><path style="marker:none" d="M10.407 33.648v19.317c-.046 9.358.96 10.317 10.298 10.317h25.97c9.34 0 10.056-.963 10.299-10.317V33.648z" overflow="visible" opacity=".2" fill="{{ theme.colors.foreground }}" enable-background="accumulate"/><path style="marker:none" d="M41.099 63.282l15.875-15.875v5.949c-.014 8.994-1.006 9.926-10.1 9.926z" overflow="visible" opacity=".4" fill="{{ theme.colors.foreground }}" enable-background="accumulate"/></g></svg>